<svg id="Calque_1" data-name="Calque 1" xmlns="http://www.w3.org/2000/svg" viewBox="0 0 625.06 297.51"><defs><style>.cls-1{fill:#1a171b;}.cls-2{fill:#ac2a2b;}</style></defs><title>1435-9560-LEBARN</title><polygon class="cls-1" points="28.38 0 0 0 0 215.9 72.17 215.9 72.17 187.53 28.38 187.53 28.38 0"/><path class="cls-1" d="M295.82,175.54v-25.3c0-25-4-38.86-17.27-42.87,13.26-4.32,17.27-11.72,17.27-37V57.1c0-35.16-8.94-47.19-43.49-47.19H214.09v215.9h38.24C286.88,225.81,295.82,212.86,295.82,175.54ZM242.46,36.74h9.87c11.72,0,15.11,4.63,15.11,23.44V70.36c0,18.2-3.39,23.44-15.11,23.44h-9.87Zm0,83.9h9.87c11.72,0,15.11,5.24,15.11,29.6v22.21c0,21.28-3.39,26.53-15.11,26.53h-9.87Z" transform="translate(-7.44 -9.91)"/><polygon class="cls-1" points="82.66 215.9 154.83 215.9 154.83 187.53 111.03 187.53 111.03 118.44 150.82 118.44 150.82 90.06 111.03 90.06 111.03 28.38 154.83 28.38 154.83 0 82.66 0 82.66 215.9"/><path class="cls-1" d="M493.22,76.53V63.27c0-37.32-9-53.36-43.49-53.36H409.32v215.9H437.7V129.89h13.88l12.34,95.92h30.84L480.57,125C490.75,118.79,493.22,100,493.22,76.53Zm-28.38-6.17c0,21.28-3.39,32.69-15.11,32.69h-12V36.74h12c11.72,0,15.11,5.25,15.11,26.53Z" transform="translate(-7.44 -9.91)"/><polygon class="cls-1" points="570.28 0 570.28 141.88 535.12 0 503.66 0 503.66 215.9 530.18 215.9 530.18 76.18 564.73 215.9 597.11 215.9 597.11 0 570.28 0"/><path class="cls-1" d="M334.68,9.91l-29.92,215.9h29l5.55-48.42h23.13L368,225.81h29.3L367.38,9.91Zm8,138.79L351,79l8,69.7Z" transform="translate(-7.44 -9.91)"/><path class="cls-2" d="M501.89,206c-2.06,3.54.26,3.91,1.38,2.19,9.57-14.7,33.55-35,59.25-34.22,33.93,0,62.58,27.83,62.58,61.77s-28.1,60.27-62,60.27c-14.81,0-29.74-6.23-40.31-15-20.32-20-21.47-51.79-31.12-77.51-9-24.72-32.3-40.4-63.3-40.4-39.32,0-73.35,30.35-71.22,72.2-.1,38.33,30.49,73.22,69.76,71.2,29.94-.8,50.71-23.52,56.19-39.87.22-.67-.53-1.33-1-.76-7.17,9.61-27.34,32-56,33.47-39.08,0-65.31-30.17-65.31-64.1s29.71-62.1,66.78-62.1c25.75,0,43.13,11.9,53.3,32.85v0c14.49,34.67,17.16,58.1,30.21,77.56,9.45,13,29.45,23.79,51.41,23.79,39.32,0,70-31.88,70-71.2s-28.22-70.94-70-71.21C562.52,165,526.41,163.82,501.89,206Z" transform="translate(-7.44 -9.91)"/></svg>